<?xml version="1.0" encoding="UTF-8"?>
<svg xmlns="http://www.w3.org/2000/svg" xmlns:xlink="http://www.w3.org/1999/xlink" width="50pt" height="50pt" viewBox="0 0 50 50" version="1.1">
<g id="surface1">
<path style=" stroke:none;fill-rule:evenodd;fill:rgb(100%,100%,100%);fill-opacity:1;" d="M 47.636719 18.730469 L 47.636719 17.101562 L 45.046875 17.101562 C 46.058594 17.363281 46.960938 17.933594 47.636719 18.730469 Z M 42.476562 17.101562 L 39.792969 17.101562 L 39.792969 18.847656 C 40.476562 17.992188 41.417969 17.378906 42.476562 17.101562 Z M 47.636719 25.292969 C 46.703125 26.390625 45.316406 27.089844 43.761719 27.089844 C 42.15625 27.089844 40.726562 26.339844 39.792969 25.175781 L 39.792969 33.535156 C 39.792969 34.734375 38.820312 35.707031 37.621094 35.707031 C 36.421875 35.707031 35.449219 34.734375 35.449219 33.535156 L 35.449219 17.148438 L 27.230469 17.148438 L 27.230469 33.535156 C 27.230469 34.734375 26.257812 35.707031 25.058594 35.707031 C 23.859375 35.707031 22.824219 34.734375 22.824219 33.535156 L 22.824219 24.65625 C 22.917969 21.539062 20.808594 20.027344 20.808594 20.027344 C 23.546875 18.800781 22.980469 13.417969 22.980469 13.417969 C 21.847656 5.765625 13.628906 6.144531 13.628906 6.144531 L 2.199219 6.144531 L 2.199219 32.402344 L 11.222656 32.402344 L 11.222656 14.21875 C 11.550781 13.605469 12.730469 13.605469 12.730469 13.605469 C 14.433594 13.699219 14.808594 15.351562 14.808594 15.351562 C 15.425781 17.714844 12.828125 18.421875 12.828125 18.421875 L 12.828125 24.5625 C 15 24.847656 14.882812 27.207031 14.882812 27.207031 L 14.882812 34.199219 C 15.070312 38.96875 19.15625 41.894531 19.15625 41.894531 C 25.246094 46.242188 31.484375 41.46875 31.484375 41.46875 C 35.070312 44.871094 40.644531 43.171875 40.644531 43.171875 C 48.5 40.976562 47.636719 31.457031 47.636719 31.457031 Z M 47.636719 25.292969 "/>
</g>
</svg>
